HIERARCHY
ROOT pelvis
{
  OFFSET 0 100 0
  CHANNELS 6 Xposition Yposition Zposition Zrotation Xrotation Yrotation
  JOINT pelvis_right_femur
  {
    OFFSET -10.78128 -3.44521 -0.5502486
    CHANNELS 3 Zrotation Xrotation Yrotation
    JOINT right_femur_tibia
    {
      OFFSET -0.8047443 -44.0398 -0.1307829
      CHANNELS 3 Zrotation Xrotation Yrotation
      JOINT right_tibia_foot
      {
        OFFSET 3.006224 -47.83518 -5
        CHANNELS 3 Zrotation Xrotation Yrotation
        End Site
        {
          OFFSET 0 -5 15
        }
      }
    }
  }
  JOINT pelvis_left_femur
  {
    OFFSET 10.78128 -3.44521 -0.5502486
    CHANNELS 3 Zrotation Xrotation Yrotation
    JOINT left_femur_tibia
    {
      OFFSET 0.8047443 -44.0398 -0.1307829
      CHANNELS 3 Zrotation Xrotation Yrotation
      JOINT left_tibia_foot
      {
        OFFSET -4.370144 -48.10324 -4.275266
        CHANNELS 3 Zrotation Xrotation Yrotation
        End Site
        {
          OFFSET 0 -5 15
        }
      }
    }
  }
  JOINT pelvis_spine1
  {
    OFFSET 0 6.468898 -3.129235
    CHANNELS 3 Zrotation Xrotation Yrotation
    JOINT spine1
    {
      OFFSET 0 23.15396 4.99043
      CHANNELS 3 Zrotation Xrotation Yrotation
      JOINT spine2
      {
        OFFSET 0 20.79997 -5.064912
        CHANNELS 3 Zrotation Xrotation Yrotation
        JOINT neck
        {
          OFFSET 0 14.38658 9.616178
          CHANNELS 3 Zrotation Xrotation Yrotation
          End Site
          {
            OFFSET 0 20 0
          }
        }
      }
      JOINT right_manubrium
      {
        OFFSET -5.722621 16.35077 3.967754
        CHANNELS 3 Zrotation Xrotation Yrotation
        JOINT right_clavicle
        {
          OFFSET -13.16364 1.694482 -4.693211
          CHANNELS 3 Zrotation Xrotation Yrotation
          JOINT right_humerus
          {
            OFFSET -28.5034 -0.3100689 -2.792744
            CHANNELS 3 Zrotation Xrotation Yrotation
            JOINT right_radius
            {
              OFFSET -25.15693 0.02248979 -1.271978
              CHANNELS 3 Zrotation Xrotation Yrotation
              End Site
              {
                OFFSET -15 0 0
              }
            }
          }
        }
      }
      JOINT left_manubrium
      {
        OFFSET 5.722621 16.35077 3.967754
        CHANNELS 3 Zrotation Xrotation Yrotation
        JOINT left_clavicle
        {
          OFFSET 13.16364 1.694482 -4.693211
          CHANNELS 3 Zrotation Xrotation Yrotation
          JOINT left_humerus
          {
            OFFSET 29.39168 -1.063119 -2.237045
            CHANNELS 3 Zrotation Xrotation Yrotation
            JOINT left_radius
            {
              OFFSET 24.59957 -0.9528479 0.9047498
              CHANNELS 3 Zrotation Xrotation Yrotation
              End Site
              {
                OFFSET 15 -0 -0
              }
            }
          }
        }
      }
    }
  }
}
MOTION
Frames: 7
Frame Time: 0.0416666666667
0 103.5113 0 2.177865 -1.174663 0.2681119 1.241958 -10.11582 8.700781 -0 34.22368 -0 -5.25959 -17.91653 -2.280208 -8.030008 10.07754 -23.47648 -0 5.148582 -0 7.678108 -16.16031 26.56848 -4.344535 -5.051726 4.961936 2.033384 9.205515 -7.738039 0.8441925 22.80885 7.166712 3.249853 -23.1116 8.811853 6.370056 -19.75316 11.57847 86.29943 35.94416 -19.78969 -0 0 16.2495 -7.581549 8.242262 4.614936 5.521596 -19.49101 -1.679883 -94.78801 29.73692 22.91684 0 0 -16.00959 3.505147 17.91045 9.543315
0.341268 103.4704 1.387781 2.022664 -1.00144 0.4213265 1.492799 -11.15075 8.521012 -0 33.19881 -0 -5.284575 -17.41733 -2.109744 -7.883749 10.17806 -23.29159 -0 5.227477 -0 7.534607 -16.44915 26.37505 -4.296598 -4.861764 4.930694 2.149009 9.155253 -7.741629 0.8879051 22.69403 7.167934 3.276264 -23.26086 8.847027 6.344212 -19.6817 11.5845 86.26429 35.91671 -19.83704 -0 0 16.13948 -7.631011 8.273888 4.631978 5.644774 -19.55832 -1.648616 -94.69266 29.67679 22.72958 0 0 -16.34035 3.573148 17.83569 9.477058
0.699141 103.3472 2.900067 1.821801 -0.7260906 0.4866114 1.795644 -12.58374 8.218702 -0 31.17069 -0 -5.303496 -16.62175 -1.741332 -7.703427 10.30549 -22.99104 -0 5.380761 -0 7.311463 -16.87476 26.06531 -4.247313 -4.610556 4.915711 2.318976 9.078036 -7.728868 0.9571755 22.521 7.165071 3.322319 -23.46027 8.889496 6.293408 -19.56352 11.59241 86.22521 35.87509 -19.91872 -0 0 15.96483 -7.7042 8.323322 4.654831 5.84544 -19.66514 -1.597035 -94.53874 29.58894 22.41447 0 0 -16.85858 3.676116 17.72862 9.365166
1.081673 103.1046 4.586563 1.61693 -0.3316976 0.4671607 2.074288 -14.27868 7.773434 -0 27.84132 -0 -5.304997 -15.48664 -1.12486 -7.536396 10.45631 -22.55381 -0 5.657845 -0 6.996163 -17.43239 25.60518 -4.211253 -4.340043 4.935524 2.521809 8.977204 -7.68645 1.050506 22.30446 7.155946 3.389658 -23.67671 8.930626 6.204685 -19.38536 11.59508 86.20886 35.82003 -20.0476 -0 0 15.71442 -7.798769 8.394047 4.682741 6.123415 -19.81916 -1.520697 -94.3129 29.47813 21.95376 0 0 -17.5519 3.805516 17.59105 9.208761
1.495457 102.7104 6.499298 1.441069 0.1863093 0.3920269 2.27129 -16.08091 7.176937 -0 23.14075 -0 -5.294748 -14.02105 -0.2597445 -7.415978 10.63084 -21.96741 -0 6.115845 -0 6.569267 -18.0964 24.96135 -4.192141 -4.089796 4.993488 2.732961 8.857752 -7.613299 1.160003 22.06383 7.141951 3.47561 -23.87845 8.962478 6.07205 -19.14006 11.58446 86.24215 35.75319 -20.23353 -0 0 15.38149 -7.911643 8.489897 4.716289 6.462595 -20.0206 -1.421332 -94.01019 29.3481 21.35311 0 0 -18.37606 3.948298 17.42407 9.019483
1.940429 102.1566 8.696524 1.303101 0.8065848 0.3132238 2.380269 -17.78364 6.451072 -0 17.46019 -0 -5.304143 -12.35926 0.7651812 -7.338565 10.83373 -21.23334 -0 6.843865 -0 5.990319 -18.78658 24.09803 -4.168154 -3.894355 5.059035 2.925085 8.72592 -7.537981 1.262726 21.82558 7.13295 3.568742 -24.03736 8.977124 5.905991 -18.83319 11.55064 86.35249 35.67863 -20.48185 -0 0 14.96593 -8.038664 8.61652 4.758884 6.811276 -20.25112 -1.317262 -93.64371 29.20057 20.6673 0 0 -19.21699 4.082711 17.22707 8.831309
2.407282 101.4727 11.24702 1.193241 1.490761 0.3028185 2.433883 -19.13174 5.642288 -0 11.49052 -0 -5.370978 -10.71842 1.808526 -7.275367 11.06743 -20.36016 -0 7.973877 -0 5.200407 -19.37192 22.97245 -4.097892 -3.786309 5.08038 3.0688 8.588399 -7.507711 1.325746 21.62036 7.14368 3.651733 -24.12691 8.965397 5.727751 -18.47687 11.48319 86.56859 35.60213 -20.79575 -0 0 14.47014 -8.175815 8.781543 4.816184 7.092165 -20.47917 -1.238934 -93.23815 29.03629 19.98379 0 0 -19.91236 4.180899 16.99761 8.693198
